# xmcd
#
# Track frame offsets:
#	150
#	20732
#	37399
#	59367
#	82759
#	104294
#	124068
#	145831
#	170585
#	192344
#	219557
#	234657
#	252895
#	276985
#
# Disc length: 4066 seconds
#
# Revision: 0
# Processed by: cddbd v1.5.1PL2 Copyright (c) Steve Scherf et al.
# Submitted via: dBpowerAMP V4.0
#
DISCID=d00fe00e
DTITLE=Barry White - Origiunal Hits
DYEAR=1900
DGENRE=Blues
TTITLE0=You're The Frist The Last The Everything
TTITLE1=Relax To The Max
TTITLE2=Beware
TTITLE3=Passion
TTITLE4=Bayou
TTITLE5=Rio de Janeiro.
TTITLE6=Jamaica Gril
TTITLE7=Never , never Say Goodbye
TTITLE8=The Better Love is 
TTITLE9=Let Me In And Let's Begain With Love.
TTITLE10=Dreams
TTITLE11=Gotta Be Where You Are
TTITLE12=Lady Sweet Lady
TTITLE13=Lovie Lovie
EXTD=Barry White
EXTT0=
EXTT1=
EXTT2=
EXTT3=
EXTT4=
EXTT5=
EXTT6=
EXTT7=
EXTT8=
EXTT9=
EXTT10=
EXTT11=
EXTT12=
EXTT13=
PLAYORDER=
